<svg xmlns="http://www.w3.org/2000/svg" width="900" height="620" viewBox="0 0 900 620">
<rect width="100%" height="100%" rx="24" fill="#0d1117"/>
<text x="450" y="48" text-anchor="middle" fill="#f0f6fc" font-size="28" font-family="Arial,sans-serif" font-weight="700">Programming Language Radar</text>
<text x="450" y="76" text-anchor="middle" fill="#8b949e" font-size="14" font-family="Arial,sans-serif">Based on GitHub Linguist byte counts across public repositories</text>
<polygon points="450.0,274.0 485.5,294.5 485.5,335.5 450.0,356.0 414.5,335.5 414.5,294.5" fill="none" stroke="#30363d" stroke-width="1"/>
<polygon points="450.0,233.0 521.0,274.0 521.0,356.0 450.0,397.0 379.0,356.0 379.0,274.0" fill="none" stroke="#30363d" stroke-width="1"/>
<polygon points="450.0,192.0 556.5,253.5 556.5,376.5 450.0,438.0 343.5,376.5 343.5,253.5" fill="none" stroke="#30363d" stroke-width="1"/>
<polygon points="450.0,151.0 592.0,233.0 592.0,397.0 450.0,479.0 308.0,397.0 308.0,233.0" fill="none" stroke="#30363d" stroke-width="1"/>
<polygon points="450.0,110.0 627.5,212.5 627.5,417.5 450.0,520.0 272.5,417.5 272.5,212.5" fill="none" stroke="#30363d" stroke-width="1"/>
<line x1="450" y1="315" x2="450.0" y2="110.0" stroke="#30363d" stroke-width="1"/>
<line x1="450" y1="315" x2="627.5" y2="212.5" stroke="#30363d" stroke-width="1"/>
<line x1="450" y1="315" x2="627.5" y2="417.5" stroke="#30363d" stroke-width="1"/>
<line x1="450" y1="315" x2="450.0" y2="520.0" stroke="#30363d" stroke-width="1"/>
<line x1="450" y1="315" x2="272.5" y2="417.5" stroke="#30363d" stroke-width="1"/>
<line x1="450" y1="315" x2="272.5" y2="212.5" stroke="#30363d" stroke-width="1"/>
<polygon points="450.0,110.0 519.1,275.1 477.0,330.6 450.0,344.4 444.6,318.1 448.3,314.0" fill="#58a6ff" fill-opacity="0.28" stroke="#58a6ff" stroke-width="3"/>
<circle cx="450.0" cy="110.0" r="5" fill="#58a6ff"/>
<text x="450.0" y="73.1" text-anchor="middle" fill="#f0f6fc" font-size="16" font-family="Arial,sans-serif" font-weight="700">Jupyter Notebook</text>
<text x="450.0" y="93.1" text-anchor="middle" fill="#8b949e" font-size="13" font-family="Arial,sans-serif">58.0%</text>
<circle cx="519.1" cy="275.1" r="5" fill="#58a6ff"/>
<text x="659.5" y="194.1" text-anchor="start" fill="#f0f6fc" font-size="16" font-family="Arial,sans-serif" font-weight="700">TypeScript</text>
<text x="659.5" y="214.1" text-anchor="start" fill="#8b949e" font-size="13" font-family="Arial,sans-serif">22.6%</text>
<circle cx="477.0" cy="330.6" r="5" fill="#58a6ff"/>
<text x="659.5" y="435.9" text-anchor="start" fill="#f0f6fc" font-size="16" font-family="Arial,sans-serif" font-weight="700">CSS</text>
<text x="659.5" y="455.9" text-anchor="start" fill="#8b949e" font-size="13" font-family="Arial,sans-serif">8.8%</text>
<circle cx="450.0" cy="344.4" r="5" fill="#58a6ff"/>
<text x="450.0" y="556.9" text-anchor="middle" fill="#f0f6fc" font-size="16" font-family="Arial,sans-serif" font-weight="700">Python</text>
<text x="450.0" y="576.9" text-anchor="middle" fill="#8b949e" font-size="13" font-family="Arial,sans-serif">8.3%</text>
<circle cx="444.6" cy="318.1" r="5" fill="#58a6ff"/>
<text x="240.5" y="436.0" text-anchor="end" fill="#f0f6fc" font-size="16" font-family="Arial,sans-serif" font-weight="700">Java</text>
<text x="240.5" y="456.0" text-anchor="end" fill="#8b949e" font-size="13" font-family="Arial,sans-serif">1.8%</text>
<circle cx="448.3" cy="314.0" r="5" fill="#58a6ff"/>
<text x="240.5" y="194.0" text-anchor="end" fill="#f0f6fc" font-size="16" font-family="Arial,sans-serif" font-weight="700">C</text>
<text x="240.5" y="214.0" text-anchor="end" fill="#8b949e" font-size="13" font-family="Arial,sans-serif">0.6%</text>
<text x="450" y="585" text-anchor="middle" fill="#8b949e" font-size="12" font-family="Arial,sans-serif">Automatically updated by GitHub Actions</text>
</svg>